<mxfile host="www.draw.io" modified="2020-01-02T03:56:10.446Z" agent="Mozilla/5.0 (Windows NT 6.1; Win64; x64) AppleWebKit/537.36 (KHTML, like Gecko) Chrome/76.0.3809.100 Safari/537.36" etag="EnCX-rI3YuYNBojpVVfh" version="12.4.8" type="github">
  <diagram id="xZNrRIc2WOHXO0rWwGNw" name="第 1 页">
    <mxGraphModel dx="1303" dy="775" grid="1" gridSize="10" guides="1" tooltips="1" connect="1" arrows="1" fold="1" page="1" pageScale="1" pageWidth="827" pageHeight="1169" math="0" shadow="0">
      <root>
        <mxCell id="0"/>
        <mxCell id="1" parent="0"/>
        <mxCell id="ay92i4HkIVaXgd9hQ1Op-6" style="edgeStyle=orthogonalEdgeStyle;rounded=0;orthogonalLoop=1;jettySize=auto;html=1;" parent="1" source="9KfrOwR9WPEPRYZSD0fy-1" target="9KfrOwR9WPEPRYZSD0fy-11" edge="1">
          <mxGeometry relative="1" as="geometry"/>
        </mxCell>
        <mxCell id="ay92i4HkIVaXgd9hQ1Op-7" style="edgeStyle=orthogonalEdgeStyle;rounded=0;orthogonalLoop=1;jettySize=auto;html=1;entryX=0.5;entryY=0;entryDx=0;entryDy=0;" parent="1" source="9KfrOwR9WPEPRYZSD0fy-1" target="ay92i4HkIVaXgd9hQ1Op-1" edge="1">
          <mxGeometry relative="1" as="geometry">
            <Array as="points">
              <mxPoint x="530" y="840"/>
            </Array>
          </mxGeometry>
        </mxCell>
        <mxCell id="9KfrOwR9WPEPRYZSD0fy-1" value="XMediaTv缓存机制" style="rounded=1;whiteSpace=wrap;html=1;" parent="1" vertex="1">
          <mxGeometry x="350" y="810" width="120" height="60" as="geometry"/>
        </mxCell>
        <mxCell id="9KfrOwR9WPEPRYZSD0fy-2" value="updateCacheFromServer&lt;br&gt;更新缓存" style="rounded=0;whiteSpace=wrap;html=1;" parent="1" vertex="1">
          <mxGeometry x="335" y="1130" width="150" height="70" as="geometry"/>
        </mxCell>
        <mxCell id="9KfrOwR9WPEPRYZSD0fy-6" value="提供数据" style="edgeStyle=orthogonalEdgeStyle;rounded=0;orthogonalLoop=1;jettySize=auto;html=1;entryX=1;entryY=0.5;entryDx=0;entryDy=0;" parent="1" source="9KfrOwR9WPEPRYZSD0fy-4" target="9KfrOwR9WPEPRYZSD0fy-2" edge="1">
          <mxGeometry relative="1" as="geometry">
            <mxPoint x="510" y="1165" as="targetPoint"/>
            <Array as="points">
              <mxPoint x="530" y="1170"/>
              <mxPoint x="530" y="1170"/>
            </Array>
          </mxGeometry>
        </mxCell>
        <mxCell id="9KfrOwR9WPEPRYZSD0fy-4" value="getDataFromServer&lt;br&gt;从服务器上读取数据" style="rounded=0;whiteSpace=wrap;html=1;" parent="1" vertex="1">
          <mxGeometry x="600" y="1140" width="120" height="60" as="geometry"/>
        </mxCell>
        <mxCell id="9KfrOwR9WPEPRYZSD0fy-10" value="加载缓存" style="edgeStyle=orthogonalEdgeStyle;rounded=0;orthogonalLoop=1;jettySize=auto;html=1;" parent="1" source="9KfrOwR9WPEPRYZSD0fy-7" target="9KfrOwR9WPEPRYZSD0fy-2" edge="1">
          <mxGeometry relative="1" as="geometry"/>
        </mxCell>
        <mxCell id="9KfrOwR9WPEPRYZSD0fy-7" value="updateViewFromCache&lt;br&gt;（更新视图-从缓存）" style="rounded=0;whiteSpace=wrap;html=1;" parent="1" vertex="1">
          <mxGeometry x="90" y="1130" width="150" height="80" as="geometry"/>
        </mxCell>
        <mxCell id="9KfrOwR9WPEPRYZSD0fy-16" value="" style="edgeStyle=orthogonalEdgeStyle;rounded=0;orthogonalLoop=1;jettySize=auto;html=1;" parent="1" source="9KfrOwR9WPEPRYZSD0fy-11" target="9KfrOwR9WPEPRYZSD0fy-15" edge="1">
          <mxGeometry relative="1" as="geometry"/>
        </mxCell>
        <mxCell id="9KfrOwR9WPEPRYZSD0fy-11" value="页面onActivate" style="rounded=0;whiteSpace=wrap;html=1;" parent="1" vertex="1">
          <mxGeometry x="210" y="900" width="120" height="60" as="geometry"/>
        </mxCell>
        <mxCell id="ay92i4HkIVaXgd9hQ1Op-4" style="edgeStyle=orthogonalEdgeStyle;rounded=0;orthogonalLoop=1;jettySize=auto;html=1;entryX=0.5;entryY=0;entryDx=0;entryDy=0;" parent="1" source="9KfrOwR9WPEPRYZSD0fy-15" target="9KfrOwR9WPEPRYZSD0fy-2" edge="1">
          <mxGeometry relative="1" as="geometry"/>
        </mxCell>
        <mxCell id="9KfrOwR9WPEPRYZSD0fy-15" value="是否第一次？&lt;br&gt;mLastUpdateTime == 0" style="rhombus;whiteSpace=wrap;html=1;" parent="1" vertex="1">
          <mxGeometry x="230" y="1000" width="80" height="80" as="geometry"/>
        </mxCell>
        <mxCell id="ay92i4HkIVaXgd9hQ1Op-3" value="" style="edgeStyle=orthogonalEdgeStyle;rounded=0;orthogonalLoop=1;jettySize=auto;html=1;" parent="1" source="ay92i4HkIVaXgd9hQ1Op-1" target="ay92i4HkIVaXgd9hQ1Op-2" edge="1">
          <mxGeometry relative="1" as="geometry"/>
        </mxCell>
        <mxCell id="ay92i4HkIVaXgd9hQ1Op-1" value="页面onDeactivate" style="rounded=0;whiteSpace=wrap;html=1;" parent="1" vertex="1">
          <mxGeometry x="470" y="900" width="120" height="60" as="geometry"/>
        </mxCell>
        <mxCell id="ay92i4HkIVaXgd9hQ1Op-5" style="edgeStyle=orthogonalEdgeStyle;rounded=0;orthogonalLoop=1;jettySize=auto;html=1;entryX=0.5;entryY=0;entryDx=0;entryDy=0;" parent="1" source="ay92i4HkIVaXgd9hQ1Op-2" target="9KfrOwR9WPEPRYZSD0fy-2" edge="1">
          <mxGeometry relative="1" as="geometry"/>
        </mxCell>
        <mxCell id="ay92i4HkIVaXgd9hQ1Op-2" value="是否距离上次更新超过60S" style="rhombus;whiteSpace=wrap;html=1;" parent="1" vertex="1">
          <mxGeometry x="490" y="1000" width="80" height="80" as="geometry"/>
        </mxCell>
        <mxCell id="_FX_0ntBXbocIypAANz7-2" value="" style="edgeStyle=orthogonalEdgeStyle;rounded=0;orthogonalLoop=1;jettySize=auto;html=1;" edge="1" parent="1" source="ay92i4HkIVaXgd9hQ1Op-9" target="_FX_0ntBXbocIypAANz7-1">
          <mxGeometry relative="1" as="geometry"/>
        </mxCell>
        <mxCell id="ay92i4HkIVaXgd9hQ1Op-9" value="菜单缓存逻辑" style="rounded=1;whiteSpace=wrap;html=1;" parent="1" vertex="1">
          <mxGeometry x="350" y="20" width="120" height="60" as="geometry"/>
        </mxCell>
        <mxCell id="_FX_0ntBXbocIypAANz7-4" value="" style="edgeStyle=orthogonalEdgeStyle;rounded=0;orthogonalLoop=1;jettySize=auto;html=1;" edge="1" parent="1" source="_FX_0ntBXbocIypAANz7-1" target="_FX_0ntBXbocIypAANz7-3">
          <mxGeometry relative="1" as="geometry"/>
        </mxCell>
        <mxCell id="_FX_0ntBXbocIypAANz7-1" value="HomeNavigation.initNavigationView&lt;br&gt;初始化导航栏" style="rounded=0;whiteSpace=wrap;html=1;" vertex="1" parent="1">
          <mxGeometry x="315" y="120" width="190" height="60" as="geometry"/>
        </mxCell>
        <mxCell id="_FX_0ntBXbocIypAANz7-8" value="N" style="edgeStyle=orthogonalEdgeStyle;rounded=0;orthogonalLoop=1;jettySize=auto;html=1;entryX=0.5;entryY=0;entryDx=0;entryDy=0;" edge="1" parent="1" source="_FX_0ntBXbocIypAANz7-3" target="_FX_0ntBXbocIypAANz7-6">
          <mxGeometry relative="1" as="geometry">
            <mxPoint x="530" y="270" as="targetPoint"/>
          </mxGeometry>
        </mxCell>
        <mxCell id="_FX_0ntBXbocIypAANz7-9" style="edgeStyle=orthogonalEdgeStyle;rounded=0;orthogonalLoop=1;jettySize=auto;html=1;entryX=0.408;entryY=0.033;entryDx=0;entryDy=0;entryPerimeter=0;" edge="1" parent="1" source="_FX_0ntBXbocIypAANz7-3" target="_FX_0ntBXbocIypAANz7-5">
          <mxGeometry relative="1" as="geometry"/>
        </mxCell>
        <mxCell id="_FX_0ntBXbocIypAANz7-10" value="Y" style="text;html=1;align=center;verticalAlign=middle;resizable=0;points=[];labelBackgroundColor=#ffffff;" vertex="1" connectable="0" parent="_FX_0ntBXbocIypAANz7-9">
          <mxGeometry x="-0.1214" y="5" relative="1" as="geometry">
            <mxPoint as="offset"/>
          </mxGeometry>
        </mxCell>
        <mxCell id="_FX_0ntBXbocIypAANz7-3" value="XMSharedUtil.newInstance().isUserActive()&lt;br&gt;" style="rhombus;whiteSpace=wrap;html=1;" vertex="1" parent="1">
          <mxGeometry x="370" y="230" width="80" height="80" as="geometry"/>
        </mxCell>
        <mxCell id="_FX_0ntBXbocIypAANz7-5" value="" style="rounded=0;whiteSpace=wrap;html=1;" vertex="1" parent="1">
          <mxGeometry x="240" y="360" width="120" height="60" as="geometry"/>
        </mxCell>
        <mxCell id="_FX_0ntBXbocIypAANz7-6" value="initOfflineMenus&lt;br&gt;启动离线模式&lt;br&gt;MSG_INIT_MENUDATA_OK" style="rounded=0;whiteSpace=wrap;html=1;" vertex="1" parent="1">
          <mxGeometry x="480" y="360" width="120" height="60" as="geometry"/>
        </mxCell>
        <mxCell id="_FX_0ntBXbocIypAANz7-11" value="displayContent" style="rounded=0;whiteSpace=wrap;html=1;" vertex="1" parent="1">
          <mxGeometry x="360" y="490" width="120" height="60" as="geometry"/>
        </mxCell>
        <mxCell id="_FX_0ntBXbocIypAANz7-14" value="" style="edgeStyle=orthogonalEdgeStyle;rounded=0;orthogonalLoop=1;jettySize=auto;html=1;" edge="1" parent="1" source="_FX_0ntBXbocIypAANz7-12">
          <mxGeometry relative="1" as="geometry">
            <mxPoint x="410" y="210" as="targetPoint"/>
          </mxGeometry>
        </mxCell>
        <mxCell id="_FX_0ntBXbocIypAANz7-18" value="False" style="text;html=1;align=center;verticalAlign=middle;resizable=0;points=[];labelBackgroundColor=#ffffff;" vertex="1" connectable="0" parent="_FX_0ntBXbocIypAANz7-14">
          <mxGeometry x="-0.0857" y="1" relative="1" as="geometry">
            <mxPoint as="offset"/>
          </mxGeometry>
        </mxCell>
        <mxCell id="_FX_0ntBXbocIypAANz7-12" value="离线模式：&lt;br&gt;1：1+OK键-startOffiline&lt;br&gt;2：一启动应用全局-cleanCach&lt;br&gt;3：重置服务器&lt;br&gt;notifyApiChange" style="rounded=0;whiteSpace=wrap;html=1;" vertex="1" parent="1">
          <mxGeometry x="740" y="157.5" width="120" height="105" as="geometry"/>
        </mxCell>
        <mxCell id="_FX_0ntBXbocIypAANz7-16" style="edgeStyle=orthogonalEdgeStyle;rounded=0;orthogonalLoop=1;jettySize=auto;html=1;" edge="1" parent="1" source="_FX_0ntBXbocIypAANz7-15">
          <mxGeometry relative="1" as="geometry">
            <mxPoint x="410" y="210" as="targetPoint"/>
          </mxGeometry>
        </mxCell>
        <mxCell id="_FX_0ntBXbocIypAANz7-17" value="True" style="text;html=1;align=center;verticalAlign=middle;resizable=0;points=[];labelBackgroundColor=#ffffff;" vertex="1" connectable="0" parent="_FX_0ntBXbocIypAANz7-16">
          <mxGeometry x="-0.3286" y="1" relative="1" as="geometry">
            <mxPoint as="offset"/>
          </mxGeometry>
        </mxCell>
        <mxCell id="_FX_0ntBXbocIypAANz7-15" value="1:LoginTask&lt;br&gt;登录成功&lt;br&gt;2:refreshApiInfo" style="rounded=0;whiteSpace=wrap;html=1;" vertex="1" parent="1">
          <mxGeometry x="10" y="170" width="120" height="80" as="geometry"/>
        </mxCell>
      </root>
    </mxGraphModel>
  </diagram>
</mxfile>
